<?xml version="1.0" encoding="UTF-8" standalone="no"?><!DOCTYPE svg PUBLIC "-//W3C//DTD SVG 1.1//EN" "http://www.w3.org/Graphics/SVG/1.1/DTD/svg11.dtd"><svg width="100%" height="100%" viewBox="0 0 1280 800" version="1.1" xmlns="http://www.w3.org/2000/svg" xmlns:xlink="http://www.w3.org/1999/xlink" xml:space="preserve" style="fill-rule:evenodd;clip-rule:evenodd;stroke-linejoin:round;stroke-miterlimit:1.41421;"><g id="Layer1"><path d="M211.845,216.778c0,-4.067 -3.302,-7.369 -7.369,-7.369l-79.834,0c-4.067,0 -7.369,3.302 -7.369,7.369l0,118.434c0,4.067 3.302,7.369 7.369,7.369l79.834,0c4.067,0 7.369,-3.302 7.369,-7.369l0,-118.434Z" style="fill:#07a3e7;"/><path d="M110.345,216.778c0,-4.067 -3.302,-7.369 -7.369,-7.369l-79.834,0c-4.067,0 -7.369,3.302 -7.369,7.369l0,118.434c0,4.067 3.302,7.369 7.369,7.369l79.834,0c4.067,0 7.369,-3.302 7.369,-7.369l0,-118.434Z" style="fill:#07a3e7;"/><path d="M313.345,216.778c0,-4.067 -3.302,-7.369 -7.369,-7.369l-79.834,0c-4.067,0 -7.369,3.302 -7.369,7.369l0,118.434c0,4.067 3.302,7.369 7.369,7.369l79.834,0c4.067,0 7.369,-3.302 7.369,-7.369l0,-118.434Z" style="fill:#07a3e7;"/><path d="M414.845,216.778c0,-4.067 -3.302,-7.369 -7.369,-7.369l-79.834,0c-4.067,0 -7.369,3.302 -7.369,7.369l0,118.434c0,4.067 3.302,7.369 7.369,7.369l79.834,0c4.067,0 7.369,-3.302 7.369,-7.369l0,-118.434Z" style="fill:#07a3e7;"/><path d="M516.345,216.778c0,-4.067 -3.302,-7.369 -7.369,-7.369l-79.834,0c-4.067,0 -7.369,3.302 -7.369,7.369l0,118.434c0,4.067 3.302,7.369 7.369,7.369l79.834,0c4.067,0 7.369,-3.302 7.369,-7.369l0,-118.434Z" style="fill:#07a3e7;"/><path d="M617.845,216.778c0,-4.067 -3.302,-7.369 -7.369,-7.369l-79.834,0c-4.067,0 -7.369,3.302 -7.369,7.369l0,118.434c0,4.067 3.302,7.369 7.369,7.369l79.834,0c4.067,0 7.369,-3.302 7.369,-7.369l0,-118.434Z" style="fill:#07a3e7;"/><path d="M719.345,216.778c0,-4.067 -3.302,-7.369 -7.369,-7.369l-79.834,0c-4.067,0 -7.369,3.302 -7.369,7.369l0,118.434c0,4.067 3.302,7.369 7.369,7.369l79.834,0c4.067,0 7.369,-3.302 7.369,-7.369l0,-118.434Z" style="fill:#07a3e7;"/><path d="M820.845,216.778c0,-4.067 -3.302,-7.369 -7.369,-7.369l-79.834,0c-4.067,0 -7.369,3.302 -7.369,7.369l0,118.434c0,4.067 3.302,7.369 7.369,7.369l79.834,0c4.067,0 7.369,-3.302 7.369,-7.369l0,-118.434Z" style="fill:#07a3e7;"/><path d="M922.345,216.778c0,-4.067 -3.302,-7.369 -7.369,-7.369l-79.834,0c-4.067,0 -7.369,3.302 -7.369,7.369l0,118.434c0,4.067 3.302,7.369 7.369,7.369l79.834,0c4.067,0 7.369,-3.302 7.369,-7.369l0,-118.434Z" style="fill:#07a3e7;"/><path d="M1023.85,216.778c0,-4.067 -3.302,-7.369 -7.369,-7.369l-79.834,0c-4.067,0 -7.369,3.302 -7.369,7.369l0,118.434c0,4.067 3.302,7.369 7.369,7.369l79.834,0c4.067,0 7.369,-3.302 7.369,-7.369l0,-118.434Z" style="fill:#07a3e7;"/><path d="M1125.35,216.778c0,-4.067 -3.302,-7.369 -7.369,-7.369l-79.834,0c-4.067,0 -7.369,3.302 -7.369,7.369l0,118.434c0,4.067 3.302,7.369 7.369,7.369l79.834,0c4.067,0 7.369,-3.302 7.369,-7.369l0,-118.434Z" style="fill:#07a3e7;"/></g><g id="Letters"><g transform="matrix(1,0,0,1,-32.0554,28.9627)"><text x="667.986px" y="279.855px" style="font-family:'SegoeUI', 'Segoe UI', sans-serif;font-size:97px;fill:none;">O</text><text x="667.986px" y="279.855px" style="font-family:'SegoeUI', 'Segoe UI', sans-serif;font-size:97px;fill:#fff;">O</text></g><g transform="matrix(1,0,0,1,-22.2659,31.8577)"><text x="766.417px" y="276.96px" style="font-family:'SegoeUI', 'Segoe UI', sans-serif;font-size:97px;fill:none;">R</text><text x="766.417px" y="276.96px" style="font-family:'SegoeUI', 'Segoe UI', sans-serif;font-size:97px;fill:#fff;">R</text></g><g transform="matrix(1,0,0,1,-20.873,39.7496)"><text x="869.674px" y="270.205px" style="font-family:'SegoeUI', 'Segoe UI', sans-serif;font-size:97px;fill:none;">T</text><text x="869.674px" y="270.205px" style="font-family:'SegoeUI', 'Segoe UI', sans-serif;font-size:97px;fill:#fff;">T</text></g><g transform="matrix(1,0,0,1,-21.1886,39.5779)"><text x="967.141px" y="269.24px" style="font-family:'SegoeUI', 'Segoe UI', sans-serif;font-size:97px;fill:none;">A</text><text x="967.141px" y="269.24px" style="font-family:'SegoeUI', 'Segoe UI', sans-serif;font-size:97px;fill:#fff;">A</text></g><g transform="matrix(1,0,0,1,-19.6983,37.6478)"><text x="1073.29px" y="271.17px" style="font-family:'SegoeUI', 'Segoe UI', sans-serif;font-size:97px;fill:none;">L</text><text x="1073.29px" y="271.17px" style="font-family:'SegoeUI', 'Segoe UI', sans-serif;font-size:97px;fill:#fff;">L</text></g><g transform="matrix(8.08402,0,0,8.08402,-854.107,-3247.4)"><text x="109.24px" y="440.048px" style="font-family:'SegoeUI', 'Segoe UI', sans-serif;font-size:12px;fill:none;">G</text><text x="109.24px" y="440.048px" style="font-family:'SegoeUI', 'Segoe UI', sans-serif;font-size:12px;fill:#fff;">G</text></g><g transform="matrix(1.01927,0,0,1.01927,-68.8518,-115.054)"><text x="195.127px" y="417.853px" style="font-family:'SegoeUI', 'Segoe UI', sans-serif;font-size:97px;fill:none;">D</text><text x="195.127px" y="417.853px" style="font-family:'SegoeUI', 'Segoe UI', sans-serif;font-size:97px;fill:#fff;">D</text></g><g transform="matrix(1,0,0,1,-6.14475,37.6449)"><text x="244.343px" y="271.17px" style="font-family:'SegoeUI', 'Segoe UI', sans-serif;font-size:97px;fill:none;">P</text><text x="244.343px" y="271.17px" style="font-family:'SegoeUI', 'Segoe UI', sans-serif;font-size:97px;fill:#fff;">P</text></g><g transform="matrix(1,0,0,1,-14.0017,32.8198)"><text x="349.53px" y="275.995px" style="font-family:'SegoeUI', 'Segoe UI', sans-serif;font-size:97px;fill:none;">R</text><text x="349.53px" y="275.995px" style="font-family:'SegoeUI', 'Segoe UI', sans-serif;font-size:97px;fill:#fff;">R</text></g><g transform="matrix(1,0,0,1,-9.60935,26.2156)"><text x="459.542px" y="279.855px" style="font-family:'SegoeUI', 'Segoe UI', sans-serif;font-size:97px;fill:none;">-</text><text x="459.542px" y="279.855px" style="font-family:'SegoeUI', 'Segoe UI', sans-serif;font-size:97px;fill:#fff;">-</text></g><g transform="matrix(1,0,0,1,-9.23281,35.8895)"><text x="553.148px" y="274.065px" style="font-family:'SegoeUI', 'Segoe UI', sans-serif;font-size:97px;fill:none;">P</text><text x="553.148px" y="274.065px" style="font-family:'SegoeUI', 'Segoe UI', sans-serif;font-size:97px;fill:#fff;">P</text></g></g></svg>